<svg width="1920" height="1080" viewBox="0 0 1920 1080" fill="none" xmlns="http://www.w3.org/2000/svg">
<g clip-path="url(#clip0_3_10)">
<rect width="1920" height="1080" fill="white"/>
<rect width="1920" height="1080" fill="#D9D9D9"/>
<g clip-path="url(#clip1_3_10)">
<path d="M1920 0H0V1080H1920V0Z" fill="#141414"/>
<line y1="19.5" x2="1920" y2="19.5" stroke="white" stroke-opacity="0.08"/>
<line y1="179.5" x2="1920" y2="179.5" stroke="white" stroke-opacity="0.08"/>
<line y1="339.5" x2="1920" y2="339.5" stroke="white" stroke-opacity="0.08"/>
<line y1="499.5" x2="1920" y2="499.5" stroke="white" stroke-opacity="0.08"/>
<line y1="659.5" x2="1920" y2="659.5" stroke="white" stroke-opacity="0.08"/>
<line y1="819.5" x2="1920" y2="819.5" stroke="white" stroke-opacity="0.08"/>
<line y1="979.5" x2="1920" y2="979.5" stroke="white" stroke-opacity="0.08"/>
<line y1="99.5" x2="1920" y2="99.5" stroke="white" stroke-opacity="0.08"/>
<line y1="259.5" x2="1920" y2="259.5" stroke="white" stroke-opacity="0.08"/>
<line y1="419.5" x2="1920" y2="419.5" stroke="white" stroke-opacity="0.08"/>
<line y1="579.5" x2="1920" y2="579.5" stroke="white" stroke-opacity="0.08"/>
<line y1="739.5" x2="1920" y2="739.5" stroke="white" stroke-opacity="0.08"/>
<line y1="899.5" x2="1920" y2="899.5" stroke="white" stroke-opacity="0.08"/>
<line y1="1059.5" x2="1920" y2="1059.5" stroke="white" stroke-opacity="0.08"/>
<line y1="59.5" x2="1920" y2="59.5" stroke="white" stroke-opacity="0.08"/>
<line y1="219.5" x2="1920" y2="219.5" stroke="white" stroke-opacity="0.08"/>
<line y1="379.5" x2="1920" y2="379.5" stroke="white" stroke-opacity="0.08"/>
<line y1="539.5" x2="1920" y2="539.5" stroke="white" stroke-opacity="0.08"/>
<line y1="699.5" x2="1920" y2="699.5" stroke="white" stroke-opacity="0.08"/>
<line y1="859.5" x2="1920" y2="859.5" stroke="white" stroke-opacity="0.08"/>
<line y1="1019.5" x2="1920" y2="1019.5" stroke="white" stroke-opacity="0.08"/>
<line y1="139.5" x2="1920" y2="139.5" stroke="white" stroke-opacity="0.08"/>
<line y1="299.5" x2="1920" y2="299.5" stroke="white" stroke-opacity="0.08"/>
<line y1="459.5" x2="1920" y2="459.5" stroke="white" stroke-opacity="0.08"/>
<line y1="619.5" x2="1920" y2="619.5" stroke="white" stroke-opacity="0.08"/>
<line y1="779.5" x2="1920" y2="779.5" stroke="white" stroke-opacity="0.08"/>
<line y1="939.5" x2="1920" y2="939.5" stroke="white" stroke-opacity="0.08"/>
<line y1="39.5" x2="1920" y2="39.5" stroke="white" stroke-opacity="0.08"/>
<line y1="199.5" x2="1920" y2="199.5" stroke="white" stroke-opacity="0.08"/>
<line y1="359.5" x2="1920" y2="359.5" stroke="white" stroke-opacity="0.08"/>
<line y1="519.5" x2="1920" y2="519.5" stroke="white" stroke-opacity="0.08"/>
<line y1="679.5" x2="1920" y2="679.5" stroke="white" stroke-opacity="0.08"/>
<line y1="839.5" x2="1920" y2="839.5" stroke="white" stroke-opacity="0.08"/>
<line y1="999.5" x2="1920" y2="999.5" stroke="white" stroke-opacity="0.08"/>
<line y1="119.5" x2="1920" y2="119.5" stroke="white" stroke-opacity="0.08"/>
<line y1="279.5" x2="1920" y2="279.5" stroke="white" stroke-opacity="0.08"/>
<line y1="439.5" x2="1920" y2="439.5" stroke="white" stroke-opacity="0.08"/>
<line y1="599.5" x2="1920" y2="599.5" stroke="white" stroke-opacity="0.08"/>
<line y1="759.5" x2="1920" y2="759.5" stroke="white" stroke-opacity="0.08"/>
<line y1="919.5" x2="1920" y2="919.5" stroke="white" stroke-opacity="0.08"/>
<line y1="1079.5" x2="1920" y2="1079.5" stroke="white" stroke-opacity="0.08"/>
<line y1="79.5" x2="1920" y2="79.5" stroke="white" stroke-opacity="0.08"/>
<line y1="239.5" x2="1920" y2="239.5" stroke="white" stroke-opacity="0.08"/>
<line y1="399.5" x2="1920" y2="399.5" stroke="white" stroke-opacity="0.08"/>
<line y1="559.5" x2="1920" y2="559.5" stroke="white" stroke-opacity="0.08"/>
<line y1="719.5" x2="1920" y2="719.5" stroke="white" stroke-opacity="0.08"/>
<line y1="879.5" x2="1920" y2="879.5" stroke="white" stroke-opacity="0.08"/>
<line y1="1039.5" x2="1920" y2="1039.5" stroke="white" stroke-opacity="0.08"/>
<line y1="159.5" x2="1920" y2="159.5" stroke="white" stroke-opacity="0.08"/>
<line y1="319.5" x2="1920" y2="319.5" stroke="white" stroke-opacity="0.08"/>
<line y1="479.5" x2="1920" y2="479.5" stroke="white" stroke-opacity="0.08"/>
<line y1="639.5" x2="1920" y2="639.5" stroke="white" stroke-opacity="0.08"/>
<line y1="799.5" x2="1920" y2="799.5" stroke="white" stroke-opacity="0.08"/>
<line y1="959.5" x2="1920" y2="959.5" stroke="white" stroke-opacity="0.08"/>
<line x1="19.5" y1="1080" x2="19.5" y2="-2.18556e-08" stroke="white" stroke-opacity="0.08"/>
<line x1="499.5" y1="1080" x2="499.5" y2="-2.18556e-08" stroke="white" stroke-opacity="0.08"/>
<line x1="259.5" y1="1080" x2="259.5" y2="-2.18556e-08" stroke="white" stroke-opacity="0.08"/>
<line x1="739.5" y1="1080" x2="739.5" y2="-2.18556e-08" stroke="white" stroke-opacity="0.08"/>
<line x1="59.5" y1="1080" x2="59.5" y2="-2.18556e-08" stroke="white" stroke-opacity="0.08"/>
<line x1="539.5" y1="1080" x2="539.5" y2="-2.18556e-08" stroke="white" stroke-opacity="0.08"/>
<line x1="299.5" y1="1080" x2="299.5" y2="-2.18556e-08" stroke="white" stroke-opacity="0.08"/>
<line x1="779.5" y1="1080" x2="779.5" y2="-2.18556e-08" stroke="white" stroke-opacity="0.08"/>
<line x1="99.5" y1="1080" x2="99.5" y2="-2.18556e-08" stroke="white" stroke-opacity="0.08"/>
<line x1="579.5" y1="1080" x2="579.5" y2="-2.18556e-08" stroke="white" stroke-opacity="0.08"/>
<line x1="339.5" y1="1080" x2="339.5" y2="-2.18556e-08" stroke="white" stroke-opacity="0.08"/>
<line x1="819.5" y1="1080" x2="819.5" y2="-2.18556e-08" stroke="white" stroke-opacity="0.08"/>
<line x1="139.5" y1="1080" x2="139.5" y2="-2.18556e-08" stroke="white" stroke-opacity="0.08"/>
<line x1="619.5" y1="1080" x2="619.5" y2="-2.18556e-08" stroke="white" stroke-opacity="0.08"/>
<line x1="379.5" y1="1080" x2="379.5" y2="-2.18556e-08" stroke="white" stroke-opacity="0.08"/>
<line x1="859.5" y1="1080" x2="859.5" y2="-2.18556e-08" stroke="white" stroke-opacity="0.08"/>
<line x1="179.5" y1="1080" x2="179.5" y2="-2.18556e-08" stroke="white" stroke-opacity="0.08"/>
<line x1="659.5" y1="1080" x2="659.5" y2="-2.18556e-08" stroke="white" stroke-opacity="0.08"/>
<line x1="419.5" y1="1080" x2="419.5" y2="-2.18556e-08" stroke="white" stroke-opacity="0.08"/>
<line x1="899.5" y1="1080" x2="899.5" y2="-2.18556e-08" stroke="white" stroke-opacity="0.08"/>
<line x1="219.5" y1="1080" x2="219.5" y2="-2.18556e-08" stroke="white" stroke-opacity="0.08"/>
<line x1="699.5" y1="1080" x2="699.5" y2="-2.18556e-08" stroke="white" stroke-opacity="0.08"/>
<line x1="459.5" y1="1080" x2="459.5" y2="-2.18556e-08" stroke="white" stroke-opacity="0.08"/>
<line x1="939.5" y1="1080" x2="939.5" y2="-2.18556e-08" stroke="white" stroke-opacity="0.08"/>
<line x1="999.5" y1="1080" x2="999.5" y2="-2.18556e-08" stroke="white" stroke-opacity="0.08"/>
<line x1="1059.5" y1="1080" x2="1059.5" y2="-2.18556e-08" stroke="white" stroke-opacity="0.08"/>
<line x1="1119.5" y1="1080" x2="1119.5" y2="-2.18556e-08" stroke="white" stroke-opacity="0.08"/>
<line x1="1259.5" y1="1080" x2="1259.5" y2="-2.18556e-08" stroke="white" stroke-opacity="0.08"/>
<line x1="1399.5" y1="1080" x2="1399.5" y2="-2.18556e-08" stroke="white" stroke-opacity="0.08"/>
<line x1="1539.5" y1="1080" x2="1539.5" y2="-2.18556e-08" stroke="white" stroke-opacity="0.08"/>
<line x1="1679.5" y1="1080" x2="1679.5" y2="-2.18556e-08" stroke="white" stroke-opacity="0.08"/>
<line x1="1819.5" y1="1080" x2="1819.5" y2="-2.18556e-08" stroke="white" stroke-opacity="0.08"/>
<line x1="1179.5" y1="1080" x2="1179.5" y2="-2.18556e-08" stroke="white" stroke-opacity="0.08"/>
<line x1="1319.5" y1="1080" x2="1319.5" y2="-2.18556e-08" stroke="white" stroke-opacity="0.08"/>
<line x1="1459.5" y1="1080" x2="1459.5" y2="-2.18556e-08" stroke="white" stroke-opacity="0.08"/>
<line x1="1599.5" y1="1080" x2="1599.5" y2="-2.18556e-08" stroke="white" stroke-opacity="0.08"/>
<line x1="1739.5" y1="1080" x2="1739.5" y2="-2.18556e-08" stroke="white" stroke-opacity="0.08"/>
<line x1="1879.5" y1="1080" x2="1879.5" y2="-2.18556e-08" stroke="white" stroke-opacity="0.08"/>
<line x1="39.5" y1="1080" x2="39.5" y2="-2.18556e-08" stroke="white" stroke-opacity="0.08"/>
<line x1="519.5" y1="1080" x2="519.5" y2="-2.18556e-08" stroke="white" stroke-opacity="0.08"/>
<line x1="279.5" y1="1080" x2="279.5" y2="-2.18556e-08" stroke="white" stroke-opacity="0.08"/>
<line x1="759.5" y1="1080" x2="759.5" y2="-2.18556e-08" stroke="white" stroke-opacity="0.08"/>
<line x1="79.5" y1="1080" x2="79.5" y2="-2.18556e-08" stroke="white" stroke-opacity="0.08"/>
<line x1="559.5" y1="1080" x2="559.5" y2="-2.18556e-08" stroke="white" stroke-opacity="0.08"/>
<line x1="319.5" y1="1080" x2="319.5" y2="-2.18556e-08" stroke="white" stroke-opacity="0.08"/>
<line x1="799.5" y1="1080" x2="799.5" y2="-2.18556e-08" stroke="white" stroke-opacity="0.08"/>
<line x1="119.5" y1="1080" x2="119.5" y2="-2.18556e-08" stroke="white" stroke-opacity="0.08"/>
<line x1="599.5" y1="1080" x2="599.5" y2="-2.18556e-08" stroke="white" stroke-opacity="0.08"/>
<line x1="359.5" y1="1080" x2="359.5" y2="-2.18556e-08" stroke="white" stroke-opacity="0.08"/>
<line x1="839.5" y1="1080" x2="839.5" y2="-2.18556e-08" stroke="white" stroke-opacity="0.08"/>
<line x1="159.5" y1="1080" x2="159.5" y2="-2.18556e-08" stroke="white" stroke-opacity="0.08"/>
<line x1="639.5" y1="1080" x2="639.5" y2="-2.18556e-08" stroke="white" stroke-opacity="0.08"/>
<line x1="399.5" y1="1080" x2="399.5" y2="-2.18556e-08" stroke="white" stroke-opacity="0.08"/>
<line x1="879.5" y1="1080" x2="879.5" y2="-2.18556e-08" stroke="white" stroke-opacity="0.08"/>
<line x1="199.5" y1="1080" x2="199.5" y2="-2.18556e-08" stroke="white" stroke-opacity="0.08"/>
<line x1="679.5" y1="1080" x2="679.5" y2="-2.18556e-08" stroke="white" stroke-opacity="0.08"/>
<line x1="439.5" y1="1080" x2="439.5" y2="-2.18556e-08" stroke="white" stroke-opacity="0.08"/>
<line x1="919.5" y1="1080" x2="919.5" y2="-2.18556e-08" stroke="white" stroke-opacity="0.08"/>
<line x1="979.5" y1="1080" x2="979.5" y2="-2.18556e-08" stroke="white" stroke-opacity="0.08"/>
<line x1="1039.5" y1="1080" x2="1039.5" y2="-2.18556e-08" stroke="white" stroke-opacity="0.08"/>
<line x1="1099.5" y1="1080" x2="1099.5" y2="-2.18556e-08" stroke="white" stroke-opacity="0.08"/>
<line x1="1239.5" y1="1080" x2="1239.5" y2="-2.18556e-08" stroke="white" stroke-opacity="0.08"/>
<line x1="1379.5" y1="1080" x2="1379.5" y2="-2.18556e-08" stroke="white" stroke-opacity="0.08"/>
<line x1="1519.5" y1="1080" x2="1519.5" y2="-2.18556e-08" stroke="white" stroke-opacity="0.08"/>
<line x1="1659.5" y1="1080" x2="1659.5" y2="-2.18556e-08" stroke="white" stroke-opacity="0.08"/>
<line x1="1799.5" y1="1080" x2="1799.5" y2="-2.18556e-08" stroke="white" stroke-opacity="0.08"/>
<line x1="1159.5" y1="1080" x2="1159.5" y2="-2.18556e-08" stroke="white" stroke-opacity="0.08"/>
<line x1="1299.5" y1="1080" x2="1299.5" y2="-2.18556e-08" stroke="white" stroke-opacity="0.08"/>
<line x1="1439.5" y1="1080" x2="1439.5" y2="-2.18556e-08" stroke="white" stroke-opacity="0.08"/>
<line x1="1579.5" y1="1080" x2="1579.5" y2="-2.18556e-08" stroke="white" stroke-opacity="0.08"/>
<line x1="1719.5" y1="1080" x2="1719.5" y2="-2.18556e-08" stroke="white" stroke-opacity="0.08"/>
<line x1="1859.5" y1="1080" x2="1859.5" y2="-2.18556e-08" stroke="white" stroke-opacity="0.08"/>
<line x1="239.5" y1="1080" x2="239.5" y2="-2.18556e-08" stroke="white" stroke-opacity="0.08"/>
<line x1="719.5" y1="1080" x2="719.5" y2="-2.18556e-08" stroke="white" stroke-opacity="0.08"/>
<line x1="479.5" y1="1080" x2="479.5" y2="-2.18556e-08" stroke="white" stroke-opacity="0.08"/>
<line x1="959.5" y1="1080" x2="959.5" y2="-2.18556e-08" stroke="white" stroke-opacity="0.08"/>
<line x1="1019.5" y1="1080" x2="1019.5" y2="-2.18556e-08" stroke="white" stroke-opacity="0.08"/>
<line x1="1079.5" y1="1080" x2="1079.5" y2="-2.18556e-08" stroke="white" stroke-opacity="0.08"/>
<line x1="1219.5" y1="1080" x2="1219.5" y2="-2.18556e-08" stroke="white" stroke-opacity="0.08"/>
<line x1="1359.5" y1="1080" x2="1359.5" y2="-2.18556e-08" stroke="white" stroke-opacity="0.08"/>
<line x1="1499.5" y1="1080" x2="1499.5" y2="-2.18556e-08" stroke="white" stroke-opacity="0.08"/>
<line x1="1639.5" y1="1080" x2="1639.5" y2="-2.18556e-08" stroke="white" stroke-opacity="0.08"/>
<line x1="1779.5" y1="1080" x2="1779.5" y2="-2.18556e-08" stroke="white" stroke-opacity="0.08"/>
<line x1="1139.5" y1="1080" x2="1139.5" y2="-2.18556e-08" stroke="white" stroke-opacity="0.08"/>
<line x1="1279.5" y1="1080" x2="1279.5" y2="-2.18556e-08" stroke="white" stroke-opacity="0.08"/>
<line x1="1419.5" y1="1080" x2="1419.5" y2="-2.18556e-08" stroke="white" stroke-opacity="0.08"/>
<line x1="1559.5" y1="1080" x2="1559.5" y2="-2.18556e-08" stroke="white" stroke-opacity="0.08"/>
<line x1="1699.5" y1="1080" x2="1699.5" y2="-2.18556e-08" stroke="white" stroke-opacity="0.08"/>
<line x1="1839.5" y1="1080" x2="1839.5" y2="-2.18556e-08" stroke="white" stroke-opacity="0.08"/>
<line x1="1199.5" y1="1080" x2="1199.5" y2="-2.18556e-08" stroke="white" stroke-opacity="0.08"/>
<line x1="1339.5" y1="1080" x2="1339.5" y2="-2.18556e-08" stroke="white" stroke-opacity="0.08"/>
<line x1="1479.5" y1="1080" x2="1479.5" y2="-2.18556e-08" stroke="white" stroke-opacity="0.08"/>
<line x1="1619.5" y1="1080" x2="1619.5" y2="-2.18556e-08" stroke="white" stroke-opacity="0.08"/>
<line x1="1759.5" y1="1080" x2="1759.5" y2="-2.18556e-08" stroke="white" stroke-opacity="0.08"/>
<line x1="1899.5" y1="1080" x2="1899.5" y2="-2.18556e-08" stroke="white" stroke-opacity="0.08"/>
</g>
</g>
<defs>
<clipPath id="clip0_3_10">
<rect width="1920" height="1080" fill="white"/>
</clipPath>
<clipPath id="clip1_3_10">
<rect width="1920" height="1080" fill="white"/>
</clipPath>
</defs>
</svg>
