<svg width="237" height="17" viewBox="0 0 237 17" fill="none" xmlns="http://www.w3.org/2000/svg">
<path d="M29.84 0.0199988L42.02 -9.53674e-07L35.16 4.34L35.1 4.28C34.44 3.5 33.5 3.04 32.48 2.98H16.24L14.86 5.52C15.36 5.52 15.6 5.52 16.98 5.52C18.34 5.52 19.58 5.52 20.82 5.52C25.34 5.54 29.02 5.52 29.34 5.52L26.22 8.5H13.22L10.2 14H1.72L0.78 13.42L1.06 13.34C1.06 13.34 1.68 13.12 2.54 12.54L8.64 1.38L8.1 0.0199988H9.38V-9.53674e-07H17.88L17.86 0.0199988H17.88C19.06 0.0199988 20.3 0.0199988 21.58 0.0199988H29.84ZM41.9672 0.0199988H51.7072L47.0472 8.5L44.0472 14.02H35.6072L34.6672 13.44L34.9472 13.34C34.9472 13.34 35.5872 13.1 36.4272 12.54L42.5072 1.4L41.9672 0.0199988ZM56.7023 11.02H80.7423C79.2023 12.9 76.9023 14.02 74.4423 14.02H46.6423L45.7023 13.44L45.9823 13.34C45.9823 13.34 46.6023 13.12 47.4623 12.54L53.5423 1.4L53.0023 0.0199988H62.7223L61.0823 3.02L60.7623 3.6L60.3423 4.36L59.7223 5.5L58.0823 8.52L56.7023 11.02ZM91.8909 8.5L90.5109 11.02H114.891L111.751 14H80.4509L79.5109 13.42L79.7909 13.34C79.7909 13.34 80.4109 13.12 81.2709 12.54L83.9309 7.66L87.3309 1.4L86.7909 -9.53674e-07H96.5909C97.7709 -9.53674e-07 99.0109 0.0199988 100.291 0.0199988V-9.53674e-07H108.531H120.691L113.871 4.34L113.831 4.28C113.111 3.44 112.071 2.98 110.991 2.98H94.9109L94.1109 4.46L93.5309 5.52C94.0309 5.52 94.3109 5.52 95.6909 5.52C97.0509 5.52 98.2909 5.52 99.5309 5.52C104.031 5.54 107.711 5.52 108.051 5.52L104.891 8.5H91.8909ZM131.225 8.5L134.345 5.52H151.685L146.485 15.04L137.205 16.62L138.625 14.02H122.985H120.385L118.165 14C116.565 14 115.545 12.34 116.225 10.94L121.425 1.4L120.885 0.0199988H141.105H142.645H147.205H154.785L147.985 4.34L147.925 4.28C147.265 3.5 146.305 3.04 145.305 2.98H144.005H128.985L125.025 10.26L124.605 11.02L124.485 11.24H140.165L140.285 11.02L140.305 10.96L141.665 8.5H131.225ZM188.857 0.459999C189.017 0.739999 189.017 1.08 188.857 1.36L186.217 6.2L179.717 9.52L184.977 14H176.557L170.097 8.52H162.557L165.417 5.5L178.157 5.52L178.877 4.18L179.397 3.22C179.437 3.18 179.437 3.12 179.417 3.06C179.377 3.02 179.337 2.98 179.277 2.98H163.837L163.497 3.6L163.077 4.36L162.457 5.5L160.817 8.52L159.437 11.02H159.457L157.817 14H149.377L148.437 13.42L148.717 13.34C148.717 13.34 149.337 13.12 150.197 12.54L156.277 1.4L155.737 0.0199988H188.137C188.437 0.0199988 188.717 0.179999 188.857 0.459999ZM192.163 0.0199988H201.903L197.243 8.5L194.243 14.02H185.802L184.862 13.44L185.142 13.34C185.142 13.34 185.782 13.1 186.622 12.54L192.703 1.4L192.163 0.0199988ZM236.318 0.459999C236.478 0.739999 236.478 1.08 236.318 1.36L233.778 6.16L232.478 8.52C230.578 11.92 227.138 14 223.418 14H196.838L195.898 13.42L196.178 13.34C196.178 13.34 196.798 13.12 197.658 12.54L203.738 1.4L203.198 0.0199988H235.598C235.898 0.0199988 236.178 0.179999 236.318 0.459999ZM226.858 3.22C226.898 3.18 226.898 3.1 226.858 3.04C226.838 3 226.778 2.98 226.738 2.98H211.298L210.958 3.6L210.538 4.36L208.898 7.36L208.818 7.52L206.898 11.02H219.598C221.478 11.02 223.198 9.96 224.138 8.24L226.338 4.18L226.858 3.22Z" fill="white"/>
</svg>
